/* XPM */
static char *web_empty[] = {
/* columns rows colors chars-per-pixel */
"16 16 88 1",
"  c #000000",
". c #010101",
"X c #020202",
"o c #030303",
"O c #040404",
"+ c #070707",
"@ c #080808",
"# c #090909",
"$ c #0A0A0A",
"% c #0D0D0D",
"& c #0E0E0E",
"* c #101010",
"= c #121212",
"- c #131313",
"; c #161616",
": c #181818",
"> c #1A1A1A",
", c #1B1B1B",
"< c #1C1C1C",
"1 c #1E1E1E",
"2 c #212121",
"3 c #242424",
"4 c #262626",
"5 c #282828",
"6 c #292929",
"7 c #2A2A2A",
"8 c #2C2C2C",
"9 c #2D2D2D",
"0 c #2E2E2E",
"q c #2F2F2F",
"w c #303030",
"e c #313131",
"r c #323232",
"t c #333333",
"y c #343434",
"u c #353535",
"i c #363636",
"p c #373737",
"a c #383838",
"s c #393939",
"d c #3A3A3A",
"f c #3B3B3B",
"g c #3C3C3C",
"h c #3D3D3D",
"j c #3E3E3E",
"k c #3F3F3F",
"l c #404040",
"z c #414141",
"x c #424242",
"c c #434343",
"v c #444444",
"b c #454545",
"n c #464646",
"m c #474747",
"M c #484848",
"N c #494949",
"B c #4A4A4A",
"V c #4B4B4B",
"C c #4C4C4C",
"Z c #4D4D4D",
"A c #4E4E4E",
"S c #4F4F4F",
"D c #505050",
"F c #515151",
"G c #525252",
"H c #535353",
"J c #545454",
"K c #555555",
"L c #565656",
"P c #575757",
"I c #595959",
"U c #5C5C5C",
"Y c #5E5E5E",
"T c #5F5F5F",
"R c #616161",
"E c #626262",
"W c #636363",
"Q c #646464",
"! c #666666",
"~ c #676767",
"^ c #6A6A6A",
"/ c #6B6B6B",
"( c #6F6F6F",
") c #737373",
"_ c #747474",
"` c #767676",
"' c #7E7E7E",
"] c #808080",
/* pixels */
"    X<cPLg*     ",
" $X+s(']]'Qp;   ",
" q08DA/`_(YIUi. ",
"XhVCkc^))QPnRUq ",
"*bxjjxAI~!EhNWKo",
"yzfhcHDNIAnrpYT-",
"jhklzBcCMr83ZTL4",
"hhcu8esdp05>VTA4",
"rhcuhMkbJk,<SIF;",
"<ixbcgjzzr-wJGzX",
"@9unNx9:=%1NDka ",
" 27pbNBg6eMANny ",
"  ,qiznMVNvVD9  ",
"   :wajxbmZC1   ",
"    #5ughgt&    ",
"      XOX       "
};
