/* XPM */
static char *im[] = {
/* columns rows colors chars-per-pixel */
"16 16 176 2",
"   c #000000",
".  c #000001",
"X  c #010001",
"o  c #050205",
"O  c #060206",
"+  c #080409",
"@  c #09040A",
"#  c #0A040B",
"$  c #0C050D",
"%  c #0D050E",
"&  c #0D060F",
"*  c #0E0610",
"=  c #100711",
"-  c #120713",
";  c #160918",
":  c #190A1B",
">  c #1B0C1D",
",  c #1C0C1F",
"<  c #1D0C20",
"1  c #1E0C21",
"2  c #1E0D21",
"3  c #1F0E23",
"4  c #210E24",
"5  c #26102B",
"6  c #29112D",
"7  c #29122E",
"8  c #2C122F",
"9  c #28152C",
"0  c #2A182E",
"q  c #2B182F",
"w  c #2B1330",
"e  c #2C1730",
"r  c #2B1830",
"t  c #311435",
"y  c #311536",
"u  c #37183C",
"i  c #37183D",
"p  c #39183F",
"a  c #3A193F",
"s  c #3B1941",
"d  c #3B1A41",
"f  c #3C1941",
"g  c #3C1A42",
"h  c #3D1A43",
"j  c #3A1E40",
"k  c #3C1C42",
"l  c #3E1A44",
"z  c #401E46",
"x  c #401F46",
"c  c #402046",
"v  c #49294E",
"b  c #4C2C51",
"n  c #503054",
"m  c #57355E",
"M  c #583062",
"N  c #5B3365",
"B  c #5D3667",
"V  c #5F3868",
"C  c #5F3869",
"Z  c #603969",
"A  c #603A6A",
"S  c #624368",
"D  c #684B6D",
"F  c #69496F",
"G  c #6B516F",
"H  c #684471",
"J  c #794C7B",
"K  c #705674",
"L  c #715178",
"P  c #74527B",
"I  c #765E7A",
"U  c #A95732",
"Y  c #D86C13",
"T  c #D06918",
"R  c #F37901",
"E  c #F57900",
"W  c #D07E3C",
"Q  c #884B4A",
"!  c #955046",
"~  c #8B4D50",
"^  c #8B5E79",
"/  c #9E6E68",
"(  c #976974",
")  c #A3746A",
"_  c #FBB558",
"`  c #D49F69",
"'  c #D59F69",
"]  c #DEA76A",
"[  c #F4BA6A",
"{  c #FDC26A",
"}  c #774783",
"|  c #7F4E89",
" . c #7F518B",
".. c #804D8C",
"X. c #815D89",
"o. c #8E4F9D",
"O. c #845091",
"+. c #90539F",
"@. c #90569E",
"#. c #8D6995",
"$. c #8E6A96",
"%. c #906A9A",
"&. c #966F9F",
"*. c #9356A1",
"=. c #965AA4",
"-. c #985DA6",
";. c #9A62A7",
":. c #9A60A8",
">. c #9B61A8",
",. c #9D64AA",
"<. c #9E66AB",
"1. c #9F68AC",
"2. c #9C74A7",
"3. c #9A78A2",
"4. c #A06AAD",
"5. c #A16BAE",
"6. c #A06CAC",
"7. c #A16CAD",
"8. c #A16CAE",
"9. c #A26DAF",
"0. c #A36EAF",
"q. c #A17EA9",
"w. c #A36EB0",
"e. c #A46FB0",
"r. c #A672B2",
"t. c #A774B3",
"y. c #A875B3",
"u. c #A876B4",
"i. c #AD7EB8",
"p. c #AE7FB9",
"a. c #9E8DA1",
"s. c #A595A8",
"d. c #AF80B9",
"f. c #AF83B9",
"g. c #B083BB",
"h. c #B089B9",
"j. c #B08DB8",
"k. c #B18FB9",
"l. c #B489BE",
"z. c #B58ABF",
"x. c #AE9FB0",
"c. c #B792BF",
"v. c #B495BC",
"b. c #B796BE",
"n. c #B68CC0",
"m. c #B78DC1",
"M. c #BA98C2",
"N. c #BB99C3",
"B. c #BC99C5",
"V. c #BEA9C3",
"C. c #C19DC9",
"Z. c #C0A0C8",
"A. c #C1A2C9",
"S. c #C2A0CA",
"D. c #C4A5CB",
"F. c #C5A5CD",
"G. c #C6A6CD",
"H. c #C7A6CE",
"J. c #D2C2D5",
"K. c #ECE5DB",
"L. c #EEE6DA",
"P. c #DCCDE0",
"I. c #DDD3E0",
"U. c #E1D0E5",
"Y. c #E5D7E9",
"T. c #E6D8EA",
"R. c #EADEEC",
"E. c #EEE5F1",
"W. c #F0E7F2",
"Q. c #F1E9F3",
"!. c #F5EFF6",
"~. c #F6F2F7",
"^. c #F9F5F9",
"/. c #FBF9FC",
"(. c #FCFAFC",
"). c #FFFFFF",
/* pixels */
"    + : w p t <                 ",
"  O ; & - e h h l 7 &           ",
"  & O , l $.k.D.b.3.b 3         ",
"    , m M.z.9.>.5.i.C.F 4       ",
"  @ x N.y.-.>.,.,.1.t.A.v +     ",
"  5 #.m.g.E.W.C.r.y.F.!.V.7     ",
"  u j.y.T.).).Q.i.g.W.).~.p     ",
"  d F.5.^.I s./.z.n.K x.).n     ",
"  d F.5.P.G a.U.2.%.D x./.x     ",
"  h C.w.f.P.R.3.L.W L.I.J.d     ",
"  d B.w. ./ ( ^ ' _ Y ! U j     ",
"  d M.w.>.J ] { { { E R Q >     ",
"  d h.w.=.-.| ) ] [ T ~ X.3     ",
"  y q.5.o.+.*.@. .}  .1.b.l &   ",
"  3 S H M N B C C C V V P L d + ",
"  + 9 9 e 0 0 0 0 e q q q q e = "
};
