/* XPM */
static char *im_hidden[] = {
/* columns rows colors chars-per-pixel */
"16 16 75 1",
"  c #000000",
". c #020202",
"X c #030303",
"o c #030403",
"O c #040404",
"+ c #040504",
"@ c #070706",
"# c #080808",
"$ c #0A0A0A",
"% c #0D0D0C",
"& c #0E0E0E",
"* c #0F100F",
"= c #121211",
"- c #131413",
"; c #171716",
": c #1A1B1A",
"> c #1B1B1B",
", c #1B1C1B",
"< c #1D1E1D",
"1 c #20211F",
"2 c #212121",
"3 c #232322",
"4 c #242424",
"5 c #252524",
"6 c #252624",
"7 c #272727",
"8 c #313231",
"9 c #343434",
"0 c #353534",
"q c #3B3B39",
"w c #3D3D3C",
"e c #3E3E3D",
"r c #444542",
"t c #464645",
"y c #474847",
"u c #484947",
"i c #4D4D4C",
"p c #525251",
"a c #595958",
"s c #5B5B5B",
"d c #5E5F5E",
"f c #616260",
"g c #666665",
"h c #676766",
"j c #6D6E6C",
"k c #717271",
"l c #727272",
"z c #737373",
"x c #757574",
"c c #767675",
"v c #777775",
"b c #777776",
"n c #777877",
"m c #787876",
"M c #787877",
"N c #797977",
"B c #797978",
"V c #7A7A79",
"C c #7A7A7A",
"Z c #7A7B7A",
"A c #7B7B7A",
"S c #7B7B7B",
"D c #7C7C7B",
"F c #7D7D7B",
"G c #7C7C7C",
"H c #7D7D7C",
"J c #7D7D7D",
"K c #7E7D7D",
"L c #7E7E7D",
"P c #7E7E7E",
"I c #7E7F7E",
"U c #7F7F7E",
"Y c #7F7F7F",
"T c #80807F",
"R c #808080",
/* pixels */
"    @:9ww9<#    ",
"   5acRRRPca4   ",
"  rPRRPFPPPRPy@ ",
" tRRPTPPFFANPTy ",
"<PPPTRPPPAAMNFF1",
"iRFPPPPFPAAANcRp",
"gRPPPPFPAAAAAARg",
"dRAAPFPDAAAAccRf",
"qRGGGAAAAAAMcMRw",
"&lTAAAAAAAMAcRl&",
" 3nRAAAAMAccRP5 ",
"  5lRPRTPcNRj<  ",
"    3pccAPP8    ",
"      @ *NT-    ",
"         =nj@   ",
"          $y;   "
};
