/* XPM */
static char *im[] = {
/* columns rows colors chars-per-pixel */
"16 16 100 2",
"   c #000000",
".  c #040403",
"X  c #060606",
"o  c #060706",
"O  c #070707",
"+  c #080807",
"@  c #080908",
"#  c #0D0D0C",
"$  c #0F0F0F",
"%  c #141414",
"&  c #191917",
"*  c #1C1C1B",
"=  c #1E1F1E",
"-  c #232322",
";  c #262726",
":  c #2E2E2C",
">  c #343534",
",  c #353635",
"<  c #363735",
"1  c #3A3B3A",
"2  c #3F413E",
"3  c #424241",
"4  c #454544",
"5  c #474847",
"6  c #4A4B47",
"7  c #494A48",
"8  c #4E4E4D",
"9  c #626362",
"0  c #686867",
"q  c #696A67",
"w  c #757672",
"e  c #797977",
"r  c #7C7C79",
"t  c #878984",
"y  c #8B8B8A",
"u  c #8E908E",
"i  c #90918E",
"p  c #9A9A98",
"a  c #A3A4A1",
"s  c #A3A4A2",
"d  c #B1B2AF",
"f  c #B6B6B5",
"g  c #BBBDBB",
"h  c #C2C3C0",
"j  c #CBCBC9",
"k  c #CECECB",
"l  c #DADBD8",
"z  c #E2E3E1",
"x  c #E4E4E3",
"c  c #E5E6E5",
"v  c #E9E9E7",
"b  c #E9EAE7",
"n  c #EBEBEA",
"m  c #EBECE9",
"M  c #EDEDEA",
"N  c #EEEEEB",
"B  c #EEEEEC",
"V  c #EFEFEC",
"C  c #EEEFED",
"Z  c #EFEFED",
"A  c #EFEFEE",
"S  c #F0F0EE",
"D  c #F1F1EE",
"F  c #F1F1EF",
"G  c #F1F1F0",
"H  c #F2F2F0",
"J  c #F3F3F1",
"K  c #F3F3F2",
"L  c #F4F4F2",
"P  c #F4F4F3",
"I  c #F4F5F3",
"U  c #F6F6F3",
"Y  c #F5F5F4",
"T  c #F6F6F4",
"R  c #F6F6F5",
"E  c #F7F7F5",
"W  c #F6F6F6",
"Q  c #F7F7F6",
"!  c #F8F8F6",
"~  c #F9F9F6",
"^  c #F8F8F7",
"/  c #F9F9F8",
"(  c #F9F9F9",
")  c #FAFAF8",
"_  c #FAFAF9",
"`  c #FBFAF9",
"'  c #FBFBF9",
"]  c #FAFAFA",
"[  c #FBFBFA",
"{  c #FCFCFA",
"}  c #FCFCFB",
"|  c #FCFDFB",
" . c #FBFBFC",
".. c #FCFCFC",
"X. c #FDFDFC",
"o. c #FDFDFD",
"O. c #FEFEFD",
"+. c #FDFDFE",
"@. c #FFFFFE",
"#. c #FFFFFF",
/* pixels */
"        # , 0 e e q , #         ",
"      7 d n #.#.#.) v f 7       ",
"  X t  .#.#.#. .) ) #.#.) u @   ",
"  y #.#.{  . .) ) E P G ) #.i   ",
", { #.) #.#.#.) ) E E I G ^ ^ 2 ",
"p #.) ) ) #. .) ( E I P G S #.a ",
"j #.^ ) )  .) ( ^ E E G F Z #.k ",
"g #.E ^ ) ) ( ( E Y I G F N #.h ",
"w #.E E E E E E Y Y G G F N #.r ",
"& x #.G Y E I I G G F S N #.z * ",
"  3 Z #.E G G I G F Z S #.I 8   ",
"    6 c #.#.#.#.#.Z S #.l 1     ",
"      X 4 a m v I ) { 9 .       ",
"            + + = F #.;         ",
"                  - Z l X       ",
"                    % i :       "
};
