/* XPM */
static char *left_bracket[] = {
/* columns rows colors chars-per-pixel */
"4 12 2 1",
"  c #000000",
". c #FFFFFF",
/* pixels */
" ...",
" .  ",
" .  ",
" .  ",
" .  ",
" .  ",
" .  ",
" .  ",
" .  ",
" .  ",
" .  ",
" ..."
};
