/* XPM */
static char *misc_empty[] = {
/* columns rows colors chars-per-pixel */
"16 16 17 1",
"  c #000000",
". c #121212",
"X c #232323",
"o c #2F2F2F",
"O c #444444",
"+ c #4C4C4C",
"@ c #4E4E4E",
"# c #6C6C6C",
"$ c #6D6D6D",
"% c #6E6E6E",
"& c #6F6F6F",
"* c #707070",
"= c #717171",
"- c #727272",
"; c #737373",
": c #747474",
"> c #808080",
/* pixels */
"                ",
" .XXXXXXXXX.    ",
" X+++++++++X    ",
" X+ooooooo+X    ",
" O>::;---->OXX. ",
" O>;--====>O++X ",
" O>--=*==*>Oo+X ",
" O>--=*==*>O*>O ",
" O>==*&&&&>O&>O ",
" O>==*&&&&>O%>O ",
" O>>>>>>>>>O%>O ",
" OOOOOOOOOO@$>O ",
"    O>&&%%$##>O ",
"    O>>>>>>>>>O ",
"    OOOOOOOOOOO ",
"                "
};
