/* XPM */
static char *_[] = {
/* columns rows colors chars-per-pixel */
"4 20 80 1 ",
"  c black",
". c black",
"X c black",
"o c black",
"O c black",
"+ c black",
"@ c black",
"# c black",
"$ c black",
"% c black",
"& c black",
"* c black",
"= c black",
"- c black",
"; c black",
": c black",
"> c black",
", c black",
"< c black",
"1 c black",
"2 c black",
"3 c black",
"4 c black",
"5 c black",
"6 c black",
"7 c black",
"8 c black",
"9 c black",
"0 c black",
"q c black",
"w c black",
"e c black",
"r c black",
"t c black",
"y c black",
"u c black",
"i c black",
"p c black",
"a c black",
"s c black",
"d c black",
"f c black",
"g c black",
"h c black",
"j c black",
"k c black",
"l c black",
"z c black",
"x c black",
"c c black",
"v c black",
"b c black",
"n c black",
"m c black",
"M c black",
"N c black",
"B c gray60",
"V c gray100",
"C c gray60",
"Z c black",
"A c black",
"S c gray40",
"D c gray60",
"F c black",
"G c black",
"H c gray40",
"J c gray60",
"K c black",
"L c black",
"P c gray40",
"I c gray60",
"U c black",
"Y c black",
"T c gray40",
"R c gray60",
"E c black",
"W c gray60",
"Q c gray100",
"! c gray100",
"~ c #DDDDDD",
/* pixels */
" .Xo",
"O+@#",
"$%&*",
"=-;:",
">,<1",
"2345",
"6789",
"0qwe",
"rtyu",
"ipas",
"dfgh",
"jklz",
"xcvb",
"nmMN",
"BVCZ",
"ASDF",
"GHJK",
"LPIU",
"YTRE",
"WQ!~"
};
