/* XPM */
static char *term_empty[] = {
/* columns rows colors chars-per-pixel */
"16 16 74 1",
"  c #000000",
". c #0E0E0E",
"X c #0F0F0F",
"o c #101010",
"O c #151515",
"+ c #161616",
"@ c #171717",
"# c #181818",
"$ c #191919",
"% c #1A1A1A",
"& c #1B1B1B",
"* c #1C1C1C",
"= c #1D1D1D",
"- c #1E1E1E",
"; c #1F1F1F",
": c #202020",
"> c #212121",
", c #222222",
"< c #232323",
"1 c #242424",
"2 c #252525",
"3 c #262626",
"4 c #282828",
"5 c #292929",
"6 c #2A2A2A",
"7 c #2B2B2B",
"8 c #2C2C2C",
"9 c #2D2D2D",
"0 c #2E2E2E",
"q c #2F2F2F",
"w c #303030",
"e c #313131",
"r c #323232",
"t c #343434",
"y c #363636",
"u c #373737",
"i c #383838",
"p c #393939",
"a c #3A3A3A",
"s c #3B3B3B",
"d c #3C3C3C",
"f c #3D3D3D",
"g c #3E3E3E",
"h c #3F3F3F",
"j c #404040",
"k c #414141",
"l c #424242",
"z c #434343",
"x c #444444",
"c c #454545",
"v c #464646",
"b c #474747",
"n c #4A4A4A",
"m c #4B4B4B",
"M c #4D4D4D",
"N c #4F4F4F",
"B c #515151",
"V c #535353",
"C c #565656",
"Z c #575757",
"A c #5A5A5A",
"S c #5C5C5C",
"D c #5D5D5D",
"F c #5F5F5F",
"G c #626262",
"H c #636363",
"J c #656565",
"K c #676767",
"L c #686868",
"P c #696969",
"I c #6A6A6A",
"U c #6B6B6B",
"Y c #777777",
"T c #787878",
/* pixels */
"                ",
"o%$$$$$$$$$$$$%o",
"%LUUUUIIIPKJHGD%",
"$I<OO++@@##$$1S$",
"$I$eewq853<:=;Z$",
"$I-dmnbxkgsu<1V$",
"$K<rTfspyte9=4N$",
"$G4uhTfauw62>9n$",
"$F87qqY63<:=&rc$",
"$Ae90Y8753<:=yk$",
"$Cy,Y,>YYY&#+sd$",
"$Ba111<,>;*%$js$",
"$Mvvjjkklqqxw8a$",
"$vvzkhfssaaaapi$",
"X%$$$$$$$$$$$$$.",
" o$$$$$$$$$$$$o "
};
