/* XPM */
static char *term[] = {
/* columns rows colors chars-per-pixel */
"16 16 159 2",
"   c #000000",
".  c #1A1E1E",
"X  c #1B1E1F",
"o  c #1D2021",
"O  c #1E2121",
"+  c #1E2222",
"@  c #272B2B",
"#  c #282B2C",
"$  c #292D2D",
"%  c #292D2F",
"&  c #2A2D2E",
"*  c #2B2F2F",
"=  c #2C2F30",
"-  c #2D3131",
";  c #2E3231",
":  c #2E3232",
">  c #2F3232",
",  c #2D3335",
"<  c #2E3436",
"1  c #2F3537",
"2  c #303433",
"3  c #303434",
"4  c #303537",
"5  c #323637",
"6  c #323737",
"7  c #353A3B",
"8  c #373B3B",
"9  c #363B3C",
"0  c #383C3C",
"q  c #3A3D3D",
"w  c #3C3F3E",
"e  c #393F40",
"r  c #3D4140",
"t  c #3E4241",
"y  c #3D4142",
"u  c #3D4343",
"i  c #3F4445",
"p  c #404443",
"a  c #424545",
"s  c #424645",
"d  c #414646",
"f  c #434646",
"g  c #424747",
"h  c #444746",
"j  c #454847",
"k  c #434848",
"l  c #444848",
"z  c #444949",
"x  c #464948",
"c  c #454A4A",
"v  c #464B4B",
"b  c #4A4D4B",
"n  c #494D4D",
"m  c #4A4E4C",
"M  c #4D504F",
"N  c #4F5250",
"B  c #4E5352",
"V  c #505352",
"C  c #525553",
"Z  c #505554",
"A  c #535655",
"S  c #545754",
"D  c #575856",
"F  c #565956",
"G  c #575957",
"H  c #565A58",
"J  c #575A5A",
"K  c #585B5B",
"L  c #595C59",
"P  c #595D5B",
"I  c #5D5F5B",
"U  c #5C5E5C",
"Y  c #5D5F5C",
"T  c #5C5F5D",
"R  c #5D5F5D",
"E  c #5F605D",
"W  c #60625F",
"Q  c #5E6261",
"!  c #5F6261",
"~  c #606360",
"^  c #616360",
"/  c #626461",
"(  c #626562",
")  c #636562",
"_  c #656867",
"`  c #6A6D69",
"'  c #6B6E6B",
"]  c #6C6E6B",
"[  c #6C6F6C",
"{  c #6C6F6D",
"}  c #6F716D",
"|  c #6C7070",
" . c #707270",
".. c #727470",
"X. c #737570",
"o. c #737573",
"O. c #747571",
"+. c #747672",
"@. c #757772",
"#. c #737675",
"$. c #757874",
"%. c #757875",
"&. c #767874",
"*. c #777A76",
"=. c #787A76",
"-. c #7A7C77",
";. c #787A78",
":. c #7A7C79",
">. c #7A7D7B",
",. c #7C7F7B",
"<. c #7F807C",
"1. c #7F817D",
"2. c #7F827D",
"3. c #8AE234",
"4. c #80827E",
"5. c #81837F",
"6. c #82847F",
"7. c #808381",
"8. c #838480",
"9. c #828580",
"0. c #848681",
"q. c #878884",
"w. c #878984",
"e. c #878987",
"r. c #8A8C88",
"t. c #8B8D88",
"y. c #8C8E89",
"u. c #8D908C",
"i. c #939592",
"p. c #949691",
"a. c #979894",
"s. c #999B97",
"d. c #9D9F9B",
"f. c #A2A4A0",
"g. c #A6A8A3",
"h. c #ABADA8",
"j. c #AFB0AC",
"k. c #B4B6B2",
"l. c #B8B9B5",
"z. c #BABCB7",
"x. c #BDBFBA",
"c. c #C4C5C1",
"v. c #C5C6C2",
"b. c #C7C8C4",
"n. c #CACBC8",
"m. c #CDCFCA",
"M. c #CECFCB",
"N. c #CFD1CD",
"B. c #D2D3CF",
"V. c #D4D5D1",
"C. c #D4D6D1",
"Z. c #D5D6D2",
"A. c #D5D7D2",
"S. c #D5D7D3",
"D. c #D6D7D3",
"F. c #EEEEEC",
"G. c #EFEFED",
"H. c #F0F0EE",
"J. c #F0F0EF",
/* pixels */
"                                ",
"+ 1 , 1 1 1 1 , , 1 , , 1 , 3 + ",
"1 N.D.D.A.A.V.D.D.B.m.n.b.c.z.4 ",
", D.k @ # $ $ * $ : : 2 , x l.1 ",
"1 V.3 ) W W E F B m l y 0 w j.1 ",
"1 V.q *.a.i.u.e.7.:.#.| f j g., ",
", m.f ) J.:.%.| [ _ ! K q N d.1 ",
"1 c.M ] <.G.;.o.[ ! B x i L p., ",
"1 x.F S R T F.S m f y q 3 ) r.1 ",
"1 k.! K L F.F S N m k y 9 [ 2.1 ",
"1 h.' f F.f i F.F.F.4 : % *.*.1 ",
"1 f.#.k x k l f u e 9 1 , ,.*., ",
": s.3.3.2.6.6.7.0.I I w.R S O.3 ",
"1 r.r.w.6.2.=.&.O.O.O.o.O...} 1 ",
"X 1 1 1 1 , 1 , 1 1 , 1 , 1 1 X ",
"  o , 1 , 1 , 1 , 1 1 , 1 , o   "
};
