/* XPM */
static char *vid_empty[] = {
/* columns rows colors chars-per-pixel */
"16 16 67 1",
"  c #000000",
". c #010101",
"X c #030303",
"o c #040404",
"O c #050505",
"+ c #070707",
"@ c #0E0E0E",
"# c #0F0F0F",
"$ c #131313",
"% c #161616",
"& c #171717",
"* c #191919",
"= c #1A1A1A",
"- c #222222",
"; c #232323",
": c #242424",
"> c #252525",
", c #272727",
"< c #282828",
"1 c #2B2B2B",
"2 c #2C2C2C",
"3 c #2D2D2D",
"4 c #2E2E2E",
"5 c #2F2F2F",
"6 c #303030",
"7 c #313131",
"8 c #323232",
"9 c #333333",
"0 c #343434",
"q c #353535",
"w c #363636",
"e c #373737",
"r c #383838",
"t c #393939",
"y c #3A3A3A",
"u c #3B3B3B",
"i c #3C3C3C",
"p c #3D3D3D",
"a c #3E3E3E",
"s c #3F3F3F",
"d c #404040",
"f c #414141",
"g c #434343",
"h c #444444",
"j c #454545",
"k c #474747",
"l c #484848",
"z c #494949",
"x c #4A4A4A",
"c c #4B4B4B",
"v c #4C4C4C",
"b c #4F4F4F",
"n c #545454",
"m c #555555",
"M c #595959",
"N c #5A5A5A",
"B c #5F5F5F",
"V c #626262",
"C c #636363",
"Z c #676767",
"A c #6A6A6A",
"S c #6D6D6D",
"D c #6F6F6F",
"F c #717171",
"G c #727272",
"H c #757575",
"J c #787878",
/* pixels */
"       --       ",
"      OuuO      ",
"      =ll*      ",
"      pHGt      ",
"     oBJHMX     ",
"     #bVVx@     ",
"     &ridt%     ",
"     >yisi-     ",
"    @bzjkzz#    ",
"  .+2ZDSSAC<O.  ",
"  $etZFFFSCw3@  ",
"  <8,fnMNmf:1;  ",
" @ey69qetuq5tt# ",
" ;hgfiiiiasfhj: ",
" 7cvcxcxxxxcvv0 ",
" %642222222237& "
};
