/* XPM */
static char *doc_empty[] = {
/* columns rows colors chars-per-pixel */
"16 16 67 1",
"  c #000000",
". c #010101",
"X c #131313",
"o c #151515",
"O c #191919",
"+ c #2D2D2D",
"@ c #303030",
"# c #313131",
"$ c #323232",
"% c #343434",
"& c #353535",
"* c #363636",
"= c #373737",
"- c #383838",
"; c #393939",
": c #3A3A3A",
"> c #3B3B3B",
", c #3C3C3C",
"< c #424242",
"1 c #434343",
"2 c #444444",
"3 c #484848",
"4 c #4A4A4A",
"5 c #4B4B4B",
"6 c #4C4C4C",
"7 c #4D4D4D",
"8 c #4F4F4F",
"9 c #515151",
"0 c #535353",
"q c #545454",
"w c #555555",
"e c #565656",
"r c #595959",
"t c #5A5A5A",
"y c #5B5B5B",
"u c #5C5C5C",
"i c #5D5D5D",
"p c #5F5F5F",
"a c #606060",
"s c #616161",
"d c #636363",
"f c #646464",
"g c #666666",
"h c #686868",
"j c #696969",
"k c #6A6A6A",
"l c #6B6B6B",
"z c #6C6C6C",
"x c #6D6D6D",
"c c #6E6E6E",
"v c #6F6F6F",
"b c #707070",
"n c #717171",
"m c #727272",
"M c #737373",
"N c #757575",
"B c #767676",
"V c #777777",
"C c #787878",
"Z c #797979",
"A c #7A7A7A",
"S c #7B7B7B",
"D c #7C7C7C",
"F c #7D7D7D",
"G c #7E7E7E",
"H c #7F7F7F",
"J c #808080",
/* pixels */
"                ",
" .X#;;;----;$X. ",
" XwDFGGHJJHDFwX ",
" #DcjvAjtixnvF# ",
" >GgMZe90@uFhG> ",
" :DzV41Nb6VNkF: ",
" ;DB8*DC8NAxlG: ",
" -Hn+5GtmSnvMN= ",
" -GC7*8cBlhsrt& ",
" :AbSt7riq3wlC; ",
" ;GNAGGFVFJGAH; ",
" >FnCjknmncjpS, ",
" %AdapsasaapfS% ",
" oySVCCCCCCCFyo ",
" .O;2<<<<<<2;O. ",
"                "
};
