/* XPM */
static char *doc[] = {
/* columns rows colors chars-per-pixel */
"16 16 163 2",
"   c #000000",
".  c #010102",
"X  c #010304",
"o  c #15273F",
"O  c #15283F",
"+  c #192D48",
"@  c #1C3453",
"#  c #D30807",
"$  c #D21514",
"%  c #D32525",
"&  c #D62424",
"*  c #DE4B49",
"=  c #E25A59",
"-  c #E65E5C",
";  c #E06363",
":  c #E36665",
">  c #E56765",
",  c #E56867",
"<  c #E36F6F",
"1  c #E66E6D",
"2  c #E4706F",
"3  c #E87372",
"4  c #E77978",
"5  c #E77D7C",
"6  c #EC807E",
"7  c #466791",
"8  c #476791",
"9  c #4F699B",
"0  c #4B6D98",
"q  c #4C6D98",
"w  c #4E75A8",
"e  c #4E76A8",
"r  c #4F76A8",
"t  c #5170A2",
"y  c #5677A2",
"u  c #5076A7",
"i  c #5076A8",
"p  c #5077A8",
"a  c #5177A9",
"s  c #5178A9",
"d  c #5278A9",
"f  c #5278AA",
"g  c #5378AA",
"h  c #5279AA",
"j  c #547CAE",
"k  c #557CAE",
"l  c #577CAE",
"z  c #6987AF",
"x  c #6A88AE",
"c  c #6A88AF",
"v  c #6C8BB4",
"b  c #6D8CB4",
"n  c #DD969B",
"m  c #E68586",
"M  c #E98C8C",
"N  c #EA8D8C",
"B  c #EE8E8C",
"V  c #EF8E8C",
"C  c #E99090",
"Z  c #EC9796",
"A  c #F19290",
"S  c #E29DA0",
"D  c #E9A6A8",
"F  c #FABFBC",
"G  c #92ACCF",
"H  c #93AECF",
"J  c #A3B9D7",
"K  c #A3BAD6",
"L  c #E2BEC4",
"P  c #A5C2E1",
"I  c #A7C3E1",
"U  c #A7C4E2",
"Y  c #A8C5E3",
"T  c #AAC5E2",
"R  c #AAC6E3",
"E  c #ACC7E3",
"W  c #B2CBE5",
"Q  c #B4CBE5",
"!  c #BCCFE6",
"~  c #BFD4EA",
"^  c #BFD5EB",
"/  c #D8CBD7",
"(  c #E1C3CB",
")  c #F4CACA",
"_  c #E6CDD2",
"`  c #F5D0D0",
"'  c #F5D7D8",
"]  c #FBDDDD",
"[  c #C3D4E9",
"{  c #C2D5EA",
"}  c #C3D6EB",
"|  c #C4D7EC",
" . c #C4D9EE",
".. c #CCDDEF",
"X. c #D0DFEF",
"o. c #C2DEF4",
"O. c #CDDEF0",
"+. c #E5DAE0",
"@. c #F9DFE0",
"#. c #CFE1F2",
"$. c #CBE2F5",
"%. c #CFE4F4",
"&. c #D1E0F0",
"*. c #D5E6F3",
"=. c #D3E6F5",
"-. c #D4E6F5",
";. c #DAE4F0",
":. c #DCEFF6",
">. c #D1E8FA",
",. c #D6E9F8",
"<. c #D2EDFC",
"1. c #D8F3FF",
"2. c #E0E4EF",
"3. c #E8E8EF",
"4. c #ECE8EF",
"5. c #F8E0E0",
"6. c #FCE3E2",
"7. c #FFE5E3",
"8. c #FAE7E6",
"9. c #FBE8E8",
"0. c #FFEDE9",
"q. c #FFEFED",
"w. c #E6EFF7",
"e. c #E8EEF6",
"r. c #E5F2FB",
"t. c #E9F1F8",
"y. c #EAF1F8",
"u. c #E9F3FA",
"i. c #EEF4FA",
"p. c #EEF5FB",
"a. c #E9F4FC",
"s. c #E7F9FF",
"d. c #E0FFFF",
"f. c #E8F8FF",
"g. c #E9FFFF",
"h. c #FCF3F3",
"j. c #FEF5F5",
"k. c #FFF6F6",
"l. c #F2F7FB",
"z. c #F5F7FB",
"x. c #F3F7FC",
"c. c #F6F9FB",
"v. c #F3FBFE",
"b. c #F5F8FC",
"n. c #F6F8FC",
"m. c #F6FAFC",
"M. c #F7FAFD",
"N. c #F0FFFF",
"B. c #F7FDFF",
"V. c #F7FFFF",
"C. c #FEFBFB",
"Z. c #F8FAFC",
"A. c #F8FBFD",
"S. c #F9FBFE",
"D. c #F8FBFF",
"F. c #F9FDFE",
"G. c #FAFCFE",
"H. c #F9FEFF",
"J. c #F8FFFF",
"K. c #FAFFFF",
"L. c #FCFFFF",
"P. c #FDFFFF",
"I. c #FFFFFF",
/* pixels */
"                                ",
"    + 8 h u u r r r a a 8 o     ",
"  O G z.M.D.D.L.L.L.L.z.b.H +   ",
"  8 z...[ $.d.( n S _ *.&.b.8   ",
"  k G.! <.a.m 3 4 $ A N.[ G.k   ",
"  h b.o.e.- * 5.) : 8.:.| B.h   ",
"  a v.1.1 & h.9.3 5.s... .B.h   ",
"  i L.+.# ; C.C ' g.>.#.2.] t   ",
"  i B.r.> % 2 ) 4./ L D N B 9   ",
"  s i.%.q.B > N Z 5 = 6 F 7.i   ",
"  i B.4.0.B.G.k.6.k.L.G.f.G.s   ",
"  j B.;.a.^ | -.,.=.O.[ I l.k   ",
"  0 i.Q T U T T T T T I Q l.0   ",
"  + K l.w.t.t.t.t.t.t.t.M.K +   ",
"  X @ y b c z z c z c b y @ X   ",
"                                "
};
