/* XPM */
static char *web[] = {
/* columns rows colors chars-per-pixel */
"16 16 210 2",
"   c #000000",
".  c #010100",
"X  c #000001",
"o  c #030200",
"O  c #070201",
"+  c #000007",
"@  c #040405",
"#  c #090000",
"$  c #0A0301",
"%  c #0F0100",
"&  c #0B0702",
"*  c #00020F",
"=  c #100402",
"-  c #1B0400",
";  c #1E0501",
":  c #190F05",
">  c #1F0F0A",
",  c #291405",
"<  c #321B05",
"1  c #3F1902",
"2  c #23181E",
"3  c #000037",
"4  c #051933",
"5  c #500602",
"6  c #5B0502",
"7  c #5A1202",
"8  c #6D0C02",
"9  c #512408",
"0  c #5C3415",
"q  c #652B12",
"w  c #6A3216",
"e  c #593D37",
"r  c #6D2E27",
"t  c #7B5607",
"y  c #724B1E",
"u  c #5B443C",
"i  c #7A5429",
"p  c #000452",
"a  c #0C2E52",
"s  c #212748",
"d  c #07186D",
"f  c #00007D",
"g  c #001B7D",
"h  c #092565",
"j  c #00227C",
"k  c #18407A",
"l  c #465875",
"z  c #990602",
"x  c #861605",
"c  c #911807",
"v  c #A20F03",
"b  c #AC0903",
"n  c #AF0E02",
"m  c #992D07",
"M  c #A32E08",
"N  c #AF2A0B",
"B  c #B72F01",
"V  c #B92D01",
"C  c #B32708",
"Z  c #B72A08",
"A  c #B62F0A",
"S  c #B5360D",
"D  c #C52606",
"F  c #CC3906",
"G  c #CC3A09",
"H  c #D83D00",
"J  c #D23F08",
"K  c #E53C00",
"L  c #9C4300",
"P  c #964B0C",
"I  c #8F5512",
"U  c #BD5113",
"Y  c #B86217",
"T  c #804F2C",
"R  c #90442E",
"E  c #955633",
"W  c #CE4607",
"Q  c #CC430B",
"!  c #CC4609",
"~  c #CB440D",
"^  c #D34301",
"/  c #DB4500",
"(  c #D74D00",
")  c #D74E00",
"_  c #D0420A",
"`  c #D0430B",
"'  c #D1480C",
"]  c #DD4C08",
"[  c #C05308",
"{  c #D0520F",
"}  c #DD560B",
"|  c #D55C0F",
" . c #DD5D0C",
".. c #CE5513",
"X. c #CB5516",
"o. c #CF5716",
"O. c #D45E16",
"+. c #D85A12",
"@. c #E04F08",
"#. c #E35500",
"$. c #E65704",
"%. c #E75F09",
"&. c #D06500",
"*. c #DA6700",
"=. c #DB790D",
"-. c #DE6210",
";. c #DD6410",
":. c #DC6515",
">. c #D96318",
",. c #DA6719",
"<. c #E36409",
"1. c #F46806",
"2. c #F56D08",
"3. c #F46B0D",
"4. c #EA7F0C",
"5. c #FF7507",
"6. c #F47900",
"7. c #FF7D0D",
"8. c #E77416",
"9. c #E4741A",
"0. c #ED741E",
"q. c #F57211",
"w. c #C45721",
"e. c #C67B3B",
"r. c #E07920",
"t. c #E17928",
"y. c #E9782F",
"u. c #9A6140",
"i. c #937057",
"p. c #9B795A",
"a. c #A96040",
"s. c #BD7D59",
"d. c #BB7E62",
"f. c #768A70",
"g. c #F3820C",
"h. c #F79311",
"j. c #FF9A11",
"k. c #FFAC08",
"l. c #F4B015",
"z. c #FEB011",
"x. c #CA8C28",
"c. c #FF852F",
"v. c #CFA236",
"b. c #CDA932",
"n. c #E8B73C",
"m. c #FFC80E",
"M. c #FFD125",
"N. c #FFFD32",
"B. c #A19956",
"V. c #999268",
"C. c #D09C57",
"Z. c #D7B645",
"A. c #FFD143",
"S. c #FFDC45",
"D. c #E4C55C",
"F. c #FFE643",
"G. c #FFF450",
"H. c #CBC179",
"J. c #DBDC74",
"K. c #000085",
"L. c #003B90",
"P. c #154A8E",
"I. c #144C91",
"U. c #1F5799",
"Y. c #18589C",
"T. c #205698",
"R. c #366480",
"E. c #0D53A1",
"W. c #065DB9",
"Q. c #456A88",
"!. c #457297",
"~. c #42739A",
"^. c #4B7D9D",
"/. c #1570C0",
"(. c #0370D2",
"). c #0074DE",
"_. c #037ADC",
"`. c #0E7CDB",
"'. c #4C8EB9",
"]. c #728CBA",
"[. c #7FB0BF",
"{. c #2988C8",
"}. c #3D84C9",
"|. c #318BCF",
" X c #3891D0",
".X c #21A8FF",
"XX c #45A1DB",
"oX c #50BFEE",
"OX c #4CC6FF",
"+X c #7CDBEE",
"@X c #67CBF7",
"#X c #69DDFF",
"$X c #7BE5FC",
"%X c #73EFFF",
"&X c #79FCFF",
"*X c #9DAA9A",
"=X c #83A1B7",
"-X c #84A5BB",
";X c #8FD2DF",
":X c #BFD5CE",
">X c #96FEFF",
",X c #ACEEF8",
"<X c #B4F8FE",
"1X c #B2FEFF",
"2X c #C4F2FB",
"3X c #C4FFFF",
"4X c #F3FFFF",
"5X c #F5FFFC",
"6X c #FEFFFF",
"7X c #FFFFFF",
/* pixels */
"        * a ^.-X=XQ.4 +         ",
"  : @ 3 /.>X5X6X6X4X;XR.2       ",
"  m e P.].s.:X3X2X,X@X[.H.T     ",
"# ! q.t.K a.&X1X<X+XoX}.J.D.y   ",
", ;.@./ ) w.y.*X%X$X#X`.f.G.Z.& ",
"I ] F Q  .c.d.'.OXXX|.W.l A.S.< ",
"Y J ' { X.e.{..X XU.I.L.V.F.n.q ",
"U _ +.B c Y.)._.(.E.k g B.N.b.0 ",
"M ~ O.V H p.!.i.C.~.j h v.M.l.1 ",
"7 C O.;.$.^ ) #.u.T.K.u m.z.*.% ",
"- v N ,.8.+.r d f p s x.k.&.R   ",
"  8 z S >.9.r.E w L 6.h.g.=.i   ",
"    6 b S ..:.1.5.3.<.g.j.t     ",
"      5 n D _ } %.1.7.0.9       ",
"        ; x C G W [ P >         ",
"            O = #               "
};
