/* XPM */
static char *fm_empty[] = {
/* columns rows colors chars-per-pixel */
"16 16 64 1",
"  c #000000",
". c #060606",
"X c #070707",
"o c #131313",
"O c #161616",
"+ c #242424",
"@ c #282828",
"# c #292929",
"$ c #2B2B2B",
"% c #2C2C2C",
"& c #2D2D2D",
"* c #2E2E2E",
"= c #363636",
"- c #373737",
"; c #383838",
": c #393939",
"> c #3A3A3A",
", c #3B3B3B",
"< c #3C3C3C",
"1 c #444444",
"2 c #454545",
"3 c #464646",
"4 c #474747",
"5 c #4B4B4B",
"6 c #4D4D4D",
"7 c #4F4F4F",
"8 c #505050",
"9 c #525252",
"0 c #535353",
"q c #545454",
"w c #555555",
"e c #565656",
"r c #575757",
"t c #585858",
"y c #595959",
"u c #5A5A5A",
"i c #5B5B5B",
"p c #5C5C5C",
"a c #5D5D5D",
"s c #5E5E5E",
"d c #5F5F5F",
"f c #606060",
"g c #616161",
"h c #626262",
"j c #636363",
"k c #646464",
"l c #656565",
"z c #666666",
"x c #676767",
"c c #686868",
"v c #696969",
"b c #6A6A6A",
"n c #6B6B6B",
"m c #6C6C6C",
"M c #6D6D6D",
"N c #6E6E6E",
"B c #6F6F6F",
"V c #707070",
"C c #717171",
"Z c #727272",
"A c #737373",
"S c #747474",
"D c #757575",
"F c #777777",
/* pixels */
"  o$$$$$$$$$$O  ",
" .%VFFFFFFFFC&X ",
" +jFDDDDDDSADf+ ",
" $Nlllllkjgdsc$ ",
" $V<========>b$ ",
" $Z=hgdaiteq=n$ ",
" $Z=hfa21rq9=n$ ",
" $Z=fspyrw08=b$ ",
" $Z;========-v$ ",
" $C=hhhhfaur=c$ ",
" $V=hhh43utw=x$ ",
" $B=hhgsitw9=x$ ",
" $B,========:z$ ",
" $Nutrw098765l$ ",
" $Mmnbvcxzljhk$ ",
" @$$$$%%&&%&**# "
};
