/* XPM */
static char *fm[] = {
/* columns rows colors chars-per-pixel */
"16 16 110 2",
"   c #000000",
".  c #0C0C0B",
"X  c #0D0D0C",
"o  c #262625",
"O  c #2B2C2A",
"+  c #484A47",
"@  c #50524E",
"#  c #51534F",
"$  c #555752",
"%  c #555753",
"&  c #565854",
"*  c #575956",
"=  c #585956",
"-  c #585A56",
";  c #595A57",
":  c #595B57",
">  c #595B58",
",  c #5B5D59",
"<  c #5C5E59",
"1  c #6C6F6A",
"2  c #6E716C",
"3  c #6F736D",
"4  c #71756F",
"5  c #747772",
"6  c #757873",
"7  c #777A74",
"8  c #888B85",
"9  c #898C87",
"0  c #8B8E89",
"q  c #8E918B",
"w  c #979993",
"e  c #9A9C97",
"r  c #9D9F9A",
"t  c #A0A29D",
"y  c #A1A39D",
"u  c #A4A6A0",
"i  c #A4A6A1",
"p  c #A5A7A2",
"a  c #A7A9A3",
"s  c #A8AAA4",
"d  c #A9ABA5",
"f  c #A9ABA6",
"g  c #AAACA6",
"h  c #AAACA7",
"j  c #ACAEA9",
"k  c #ADAFAA",
"l  c #AEB0AA",
"z  c #AEB0AB",
"x  c #AFB1AC",
"c  c #B0B2AD",
"v  c #B1B3AD",
"b  c #B3B5AF",
"n  c #B4B6B0",
"m  c #B5B7B1",
"M  c #B5B7B2",
"N  c #B6B8B2",
"B  c #B7B9B4",
"V  c #BABCB6",
"C  c #BBBDB7",
"Z  c #BCBEB8",
"A  c #BDBFB9",
"S  c #BFC1BB",
"D  c #BFC1BE",
"F  c #C0C2BC",
"G  c #C1C3BD",
"H  c #C2C4BE",
"J  c #C3C5BF",
"K  c #C4C6C0",
"L  c #C4C5C2",
"P  c #C5C6C3",
"I  c #C6C7C5",
"U  c #C6C8C2",
"Y  c #C7C8C5",
"T  c #C9CBC5",
"R  c #C9CAC7",
"E  c #CACCC6",
"W  c #CBCDC7",
"Q  c #CBCCC9",
"!  c #CDCECB",
"~  c #CECFCD",
"^  c #CFD0CD",
"/  c #D0D1CF",
"(  c #D1D2CE",
")  c #D1D2CF",
"_  c #D2D3D0",
"`  c #D3D4D1",
"'  c #D4D5D2",
"]  c #D5D6D3",
"[  c #D6D7D3",
"{  c #D6D7D4",
"}  c #D7D8D5",
"|  c #D9DAD7",
" . c #DBDCD9",
".. c #DCDEDA",
"X. c #DDDEDB",
"o. c #DEDFDD",
"O. c #E0E1DE",
"+. c #E0E1DF",
"@. c #E2E3E0",
"#. c #E3E3E1",
"$. c #E3E4E1",
"%. c #E4E5E2",
"&. c #E7E7E5",
"*. c #E8E9E6",
"=. c #E9EAE7",
"-. c #E9EAE8",
";. c #E9EAE9",
":. c #EDEEEC",
">. c #EEEEED",
",. c #EEEFEE",
/* pixels */
"    o % * % % * % % % % % O     ",
"  . * +.:.:.:.:.,.:.:.:.$.> X   ",
"  + P :.=.-.=.=.-.=.*.&.-.D +   ",
"  % ..W W T W T T Y J S A ) %   ",
"  % +.7 1 1 2 1 1 1 1 1 5 ` %   ",
"  % $.1 J J S V m c j f 1 ] %   ",
"  % %.1 P G V 9 8 k f p 1 ] %   ",
"  % %.1 G Z N b z g p y 1 ' %   ",
"  & +.3 1 2 1 2 1 1 1 1 2 _ %   ",
"  - +.1 J J J J F V m k 1 ^ %   ",
"  & O.1 J J J q 0 m x f 1 ~ %   ",
"  & o.2 J P J Z N c g p 1 ! %   ",
"  % ..7 1 1 1 1 1 1 1 1 4 Q %   ",
"  &  .b b z f a i y r e w T %   ",
"  % | ] ' ' ) ~ ! Q T I P I %   ",
"  @ % * % % ; * ; > * ; , > $   "
};
