/* XPM */
static char *im_empty[] = {
/* columns rows colors chars-per-pixel */
"16 16 85 1",
"  c #000000",
". c #010101",
"X c #020202",
"o c #030303",
"O c #040404",
"+ c #050505",
"@ c #060606",
"# c #070707",
"$ c #080808",
"% c #0A0A0A",
"& c #0B0B0B",
"* c #0C0C0C",
"= c #0D0D0D",
"- c #0E0E0E",
"; c #0F0F0F",
": c #121212",
"> c #131313",
", c #141414",
"< c #151515",
"1 c #161616",
"2 c #191919",
"3 c #1A1A1A",
"4 c #1B1B1B",
"5 c #1C1C1C",
"6 c #1D1D1D",
"7 c #1E1E1E",
"8 c #222222",
"9 c #242424",
"0 c #252525",
"q c #292929",
"w c #2B2B2B",
"e c #2C2C2C",
"r c #2D2D2D",
"t c #2F2F2F",
"y c #323232",
"u c #343434",
"i c #353535",
"p c #363636",
"a c #383838",
"s c #393939",
"d c #3A3A3A",
"f c #3C3C3C",
"g c #3D3D3D",
"h c #3E3E3E",
"j c #404040",
"k c #424242",
"l c #444444",
"z c #454545",
"x c #474747",
"c c #484848",
"v c #494949",
"b c #4A4A4A",
"n c #4B4B4B",
"m c #4C4C4C",
"M c #4D4D4D",
"N c #4E4E4E",
"B c #4F4F4F",
"V c #505050",
"C c #515151",
"Z c #535353",
"A c #545454",
"S c #555555",
"D c #565656",
"F c #575757",
"G c #585858",
"H c #595959",
"J c #5B5B5B",
"K c #5C5C5C",
"L c #5E5E5E",
"P c #5F5F5F",
"I c #606060",
"U c #616161",
"Y c #686868",
"T c #6D6D6D",
"R c #6E6E6E",
"E c #6F6F6F",
"W c #727272",
"Q c #747474",
"! c #777777",
"~ c #787878",
"^ c #7A7A7A",
"/ c #7B7B7B",
"( c #7C7C7C",
") c #7E7E7E",
"_ c #808080",
/* pixels */
"  O&,31=        ",
" o%@$,455>@     ",
" @X=7lDIHn9-.   ",
" .=qJFMvmALy;   ",
" O7JVcvbnmVL8+  ",
" :lHS!~LBVU^L>  ",
" 2DVW__~ZA~_/2  ",
" 4IM(sC)FGpD_0  ",
" 4UMEuNWnzyD)6  ",
" 4PNATQcWkWRY5  ",
" 4KNfjjhVDdui4  ",
" 4HNvaZJJJggy*  ",
" 3SNxcfkVHsuh-  ",
" 1NMklzlhafmG7# ",
" -tyqwerrrrrap4O",
" o>,,,,,,,,,,,<#"
};
