/* XPM */
static char *misc[] = {
/* columns rows colors chars-per-pixel */
"16 16 37 1",
"  c #000000",
". c #102543",
"X c #204A87",
"o c #3465A4",
"O c #729FCF",
"+ c #888A85",
"@ c #9C9E99",
"# c #D8D9D5",
"$ c #D8DAD6",
"% c #DADAD7",
"& c #DADBD7",
"* c #DBDCD9",
"= c #DCDCD9",
"- c #DDDED9",
"; c #DDDEDA",
": c #DDDFDB",
"> c #DEDFDB",
", c #DFDFDC",
"< c #DFE0DC",
"1 c #E0E1DD",
"2 c #E0E1DE",
"3 c #E1E2DE",
"4 c #E0E2DF",
"5 c #E1E2DF",
"6 c #E2E2DF",
"7 c #E2E3E0",
"8 c #E3E3E1",
"9 c #E3E4E0",
"0 c #E3E4E1",
"q c #E4E4E2",
"w c #E5E5E2",
"e c #E5E5E3",
"r c #E5E6E3",
"t c #E6E6E4",
"y c #E8E8E5",
"u c #E9E8E6",
"i c #FFFFFF",
/* pixels */
"                ",
" .XXXXXXXXX.    ",
" XOOOOOOOOOX    ",
" XOoooooooOX    ",
" +iuuee000i+XX. ",
" +ite07733i+OOX ",
" +ie07337<i+oOX ",
" +ie07337<i+3i+ ",
" +i07<3;::i+<i+ ",
" +i733<;::i+;i+ ",
" +iiiiiiiii+;i+ ",
" ++++++++++@%i+ ",
"    +i;;**%%#i+ ",
"    +iiiiiiiii+ ",
"    +++++++++++ ",
"                "
};
