/* XPM */
static char *question[] = {
/* columns rows colors chars-per-pixel */
"16 16 12 1",
"  c #000000",
". c #101011",
"X c #202021",
"o c #313032",
"O c #414042",
"+ c #515053",
"@ c #616063",
"# c #828184",
"$ c #929195",
"% c #C2C1C6",
"& c #F3F1F8",
"* c None",
/* pixels */
"****************",
"****************",
"*&&&&&#  o%&&&**",
"*&&&&$ #&o.&&&&*",
"*&&&&O.&&+ %&&&*",
"*&&&&&&&# +&&&&*",
"*&&&&&&$ @&&&&&*",
"*&&&&&&+X&&&&&&*",
"*&&&&&&%$&&&&&&*",
"*&&&&&&+X&&&&&&*",
"*&&&&&&+X&&&&&&*",
"*&&&&&&&&&&&&&**",
"**&&&&&&&&&&&***",
"***********&****",
"****************",
"****************"
};
