/* XPM */
static char *vid[] = {
/* columns rows colors chars-per-pixel */
"16 16 132 2",
"   c #000000",
".  c #010100",
"X  c #010101",
"o  c #050606",
"O  c #070708",
"+  c #130801",
"@  c #110902",
"#  c #150900",
"$  c #1A0E03",
"%  c #191C1E",
"&  c #2B190B",
"*  c #2B1B0D",
"=  c #2E1B0C",
"-  c #251D12",
";  c #241F14",
":  c #352614",
">  c #1C1F21",
",  c #3C3028",
"<  c #3E3329",
"1  c #5A2102",
"2  c #5C2502",
"3  c #512A05",
"4  c #572E04",
"5  c #724319",
"6  c #7E521F",
"7  c #5F4D3F",
"8  c #664D20",
"9  c #665223",
"0  c #6C5742",
"q  c #69757B",
"w  c #9D2A00",
"e  c #923001",
"r  c #973C03",
"t  c #A93400",
"y  c #BD3400",
"u  c #C53700",
"i  c #854102",
"p  c #844204",
"a  c #9B5713",
"s  c #9B5913",
"d  c #9C5913",
"f  c #9C5A13",
"g  c #9F5C15",
"h  c #A25C14",
"j  c #AC750F",
"k  c #AB6114",
"l  c #AD6314",
"z  c #C64B00",
"x  c #CA4E00",
"c  c #D34B00",
"v  c #D74B00",
"b  c #E24D00",
"n  c #E05100",
"m  c #E55500",
"M  c #E85000",
"N  c #EB5F00",
"B  c #EF5D00",
"V  c #F05E00",
"C  c #C57514",
"Z  c #C67C19",
"A  c #E86000",
"S  c #E66A00",
"D  c #EF6900",
"F  c #E96D00",
"G  c #F46200",
"H  c #F66500",
"J  c #F86600",
"K  c #F26800",
"L  c #F36B00",
"P  c #F76A00",
"I  c #F36E00",
"U  c #F57000",
"Y  c #F47100",
"T  c #F87B00",
"R  c #FE7800",
"E  c #FF7B00",
"W  c #F97D00",
"Q  c #D27A37",
"!  c #D27C35",
"~  c #995F44",
"^  c #A86842",
"/  c #B5830B",
"(  c #FC8C00",
")  c #FE9000",
"_  c #FF9C00",
"`  c #FE9C05",
"'  c #FFA300",
"]  c #FFAA06",
"[  c #FDBA1F",
"{  c #EB812A",
"}  c #F18F2B",
"|  c #F28F2D",
" . c #F48E2C",
".. c #E4903E",
"X. c #FDA521",
"o. c #FDA621",
"O. c #FFA621",
"+. c #FFA721",
"@. c #FCB220",
"#. c #FDB221",
"$. c #FDB421",
"%. c #FDB722",
"&. c #FCBC23",
"*. c #AB8C7B",
"=. c #E48D42",
"-. c #CA8F60",
";. c #D29C69",
":. c #DBAB75",
">. c #D7A578",
",. c #727C82",
"<. c #B69B85",
"1. c #D5AE8F",
"2. c #D7B290",
"3. c #E6C3A1",
"4. c #E6C6A0",
"5. c #9FB6CB",
"6. c #ACC3D6",
"7. c #B0CDE0",
"8. c #A8D0ED",
"9. c #B7D5E9",
"0. c #AED6F7",
"q. c #C5D9E9",
"w. c #D2DCE2",
"e. c #D2DCE3",
"r. c #C3DFF9",
"t. c #CCE8FF",
"y. c #CCE9FF",
"u. c #D0E2F1",
"i. c #D8E6F1",
"p. c #D7F2FF",
"a. c #DEFAFF",
"s. c #E0EEF7",
/* pixels */
"              p i               ",
"            @ D K @             ",
"            < |  .,             ",
"            ,.s.i.q             ",
"          O 6.a.p.5.o           ",
"          = ;.3.4.-.&           ",
"          2 A P E N 1           ",
"          r V H E J e           ",
"        % <.=.{ } ..*.>         ",
"      $ 0 0.u.w.e.q.8.7 #       ",
"    : m ^ 9.y.y.t.r.7.~ u *     ",
"    6 c t ! >.1.2.:.Q w y 5     ",
"  - C F x v b M B G n z S Z ;   ",
"  8 ` _ ( I I P U T W ) ' ] 9   ",
"  j #.%.#.o.o.X.o.o.o.$.&.[ /   ",
"  3 k h f d f d f a s f g l 4   "
};
